<svg id="Layer_1" data-name="Layer 1" xmlns="http://www.w3.org/2000/svg" viewBox="0 0 390.01 388.4"><defs><style>.cls-1{fill:#171629;}</style></defs><polygon class="cls-1" points="257.37 241.66 379.8 364.09 356.58 387.35 231.19 261.91 249.78 333.58 217.96 341.83 201.29 277.67 171.66 388.4 139.93 379.89 170.7 264.93 59.66 375.96 36.4 352.74 145.99 243.15 48.93 268.11 40.77 236.25 140.93 210.5 0 172.75 8.51 141.02 147.52 178.25 101.56 132.29 124.78 109.07 169.04 153.32 131.37 8.25 163.19 0 201.81 148.74 226.91 54.95 258.68 63.46 234.16 154.98 345.75 43.38 368.98 66.65 254.28 181.34 381.81 148.57 390.01 180.38 270.38 211.15 356.14 234.11 347.63 265.84 257.37 241.66"/></svg>